<svg version="1.2" xmlns="http://www.w3.org/2000/svg" viewBox="0 0 103 24" width="103" height="24" id="logo">
    <title>PERSCOM</title>
    <style>
        .s0 { fill: none }
        .s1 { fill: #646464;stroke: #ffffff;stroke-width: 0 }
        .s2 { fill: #d9d9d9 }
    </style>
    <g id="background-logo">
        <path id="Layer" class="s0" d="m-21.6-49.1h175.8v140.4h-175.8z"/>
    </g>
    <g id="text-logo-path-group">
        <g id="Layer">
            <g id="text-logo-path-0">
                <path id="Layer" fill-rule="evenodd" class="s1"
                      d="m39.2 18.9l-3.4 0.7q2-9.1 2.8-14 2.1-0.7 3.2-0.7 1 0 1.6 0.3 0.6 0.3 1 0.8 0.7 1 0.7 2.7 0 1.1-0.4 2.1-0.4 1-1.1 1.8-0.7 0.8-1.5 1.3-0.9 0.5-1.9 0.5h-0.2q-0.4 1.6-0.8 4.5zm1.2-6.6q0.7-0.2 1.3-1.1 0.7-1.1 0.7-2.4 0-0.7-0.4-1.1-0.3-0.4-0.7-0.4-0.5 2.8-0.9 5zm9.5 6.3l-6.4 1 2.6-14.1 6.3-0.5q-0.2 0.4-0.3 0.8-0.1 0.4-0.2 0.8-0.1 0.4-0.1 0.8-0.6 0-1.6 0h-1.3l-0.7 3.6q1-0.1 1.7-0.1 0.8 0 1-0.1-0.1 0.6-0.2 1.1 0 0.6-0.1 1.1-0.3 0-0.7 0.1-0.4 0-0.9 0-0.5 0-1.1 0l-0.7 3.7 2.9-0.5zm3.5 0.2l-3.2 0.8q2-9.7 2.4-13.8 2.3-0.7 5-0.7 2.1 0 2.5 1.5 0.1 0.4 0.1 1.1 0 0.6-0.2 1.4-0.3 0.7-0.8 1.4-0.9 1.5-2.4 2.2 0.8 1.6 1.4 3.1 0.5 1.1 0.8 1.9l1.4-2.7q0.3 0.5 1.1 0.9 0.7 0.5 1.1 0.5 0.4 0 0.7-0.1 0.2 0 0.4-0.2 0.5-0.3 0.5-0.8 0-0.5-0.3-0.9-0.3-0.4-0.7-0.8-0.5-0.4-1-0.7-0.6-0.4-1-0.9-1.1-0.9-1.1-2 0-1 0.6-1.9 0.6-0.9 1.6-1.6 0.9-0.6 2-1 1.1-0.4 1.8-0.4 0.8 0 1.2 0.2 0.5 0.1 0.9 0.4 0.7 0.6 0.7 1.8 0 0.3 0 0.6-0.1 0.2-0.1 0.6l-2.9 0.8q0.1-0.4 0.1-0.8 0-0.5-0.2-0.7-0.2-0.3-0.5-0.3-0.2 0-0.4 0.1-0.3 0.2-0.5 0.4-0.5 0.4-0.5 0.9 0 0.5 0.2 0.8 0.3 0.4 0.7 0.6 0.4 0.3 0.9 0.6 0.4 0.3 0.8 0.7 1 1.1 1 2.9 0 2.2-1.6 3.6-1.5 1.3-3.8 1.3-1.6 0-3-1.5 0.1 0 0.1 0.1l-3.1 1.1q-1.5-5.3-1.5-6l-0.3 0.1q-0.6 3.5-0.9 5.4zm2.1-10.9l-0.7 3.1q0.8-0.1 2-1 1.2-0.9 1.2-1.5 0-0.5-1.1-0.6-0.3 0-0.6 0zm13.2 10.6q-0.8-1.2-0.8-3.2 0-1.9 0.5-3.7 0.5-1.9 1.5-3.3 0.9-1.4 2.2-2.3 1.3-0.9 2.8-0.9 1 0 1.7 0.8 0.6 0.7 0.6 2v0.2q0 0.1 0 0.3l-2.6 0.7q-0.2-0.5-0.5-0.5-0.3 0-0.7 0.4-0.3 0.3-0.7 0.9-0.3 0.6-0.6 1.3-0.3 0.7-0.6 1.5-0.5 1.6-0.5 2.6 0 1 0.6 1 0.5 0 1-0.6 0.6-0.6 0.7-1.3l2.3 0.9q-0.9 2-2.3 3.2-1.2 1.1-2.6 1.1-1.2 0-2-1.1zm7.1-2.9q0-2.2 1-4.8 1-2.5 2.7-4.2 1.8-1.8 3.7-1.8 1.7 0 2.4 1.3 0.6 1 0.6 3.2 0 1.2-0.3 2.6-0.4 1.4-0.9 2.6-0.6 1.2-1.4 2.2-0.7 0.9-1.6 1.6-1.7 1.3-3.3 1.3-1.3 0-2.1-0.9-0.8-1.1-0.8-3.1zm2.9-0.5q0 0.7 0.7 1.1 0.1 0.2 0.4 0.2 0.9 0 1.6-0.6 0.7-0.6 1.1-1.5 0.5-0.9 0.7-1.9 0.3-1 0.3-1.9 0-1.6-1-1.6-1.1 0-2.1 1.2-0.7 0.9-1.3 2.5-0.4 1.3-0.4 2.5zm8.7 4.1l-3.2 0.2q3.1-9.5 4.2-13.9 1.1 0 2.1-0.1 1-0.1 2.1-0.2-0.1 0.4-0.1 1-0.1 0.5-0.2 1.1-0.1 0.6-0.2 1.2-0.1 0.7-0.2 1.7-0.2 1-0.4 2.4h0.3q2.2-5.9 2.9-7.4 1-0.1 1.6-0.2 0.7-0.1 1.1-0.2 0.4-0.1 1-0.2-1 5.6-1.6 14.1l-3.5 0.7q0-0.7 0.2-2.3l0.3-2.3q0.2-1.7 0.3-2.7h-0.1q-0.3 0.8-0.6 1.7-0.4 0.9-0.7 1.9-0.4 0.9-0.7 1.9-0.4 0.9-0.6 1.7-0.7 0-1.2 0.1h-1.1l0.6-7.3h-0.3q0 0.2-0.2 0.8-0.2 0.7-0.4 1.4-0.2 0.8-0.4 1.7-0.3 0.8-0.5 1.5-0.3 1.2-0.5 1.7z"/>
            </g>
        </g>
    </g>
    <g id="shape-4ba72ef2-936a-49d3-93b3-1ec8e54791af">
        <g id="Layer">
            <g id="path-1">
                <path id="Layer" class="s2"
                      d="m24.5 7.1l-1.4 8.6c-0.4 2.4-1.8 4.5-3.7 5.6l-2 1.2-2.1-1.2c-1.9-1.1-3.3-3.2-3.7-5.6l-1.4-8.6 7.2-2.7zm-2.1-3.4l-0.4-0.5 0.6-0.1 0.3-0.5 0.3 0.5 0.6 0.1-0.5 0.5 0.1 0.6-0.5-0.3-0.6 0.3zm-5.7-2.1l-0.7-0.6 0.9-0.1 0.4-0.8 0.4 0.8 0.9 0.1-0.7 0.6 0.2 0.9-0.8-0.4-0.8 0.4zm-5.4 2.1l-0.4-0.5 0.6-0.1 0.3-0.5 0.3 0.5 0.6 0.1-0.5 0.5 0.1 0.6-0.5-0.3-0.6 0.3z"/>
            </g>
            <g id="path-2">
                <path id="Layer" fill-rule="evenodd" class="s2"
                      d="m25 11l-0.1 0.7 7.3-2.3-2 3.7-5.8 1.8-0.1 0.6 5.4-1.7-2 3.7-4.5 1.4c-0.8 1.4-1.9 2.6-3.2 3.3l-2.6 1.5-2.6-1.5c-1.4-0.7-2.5-1.9-3.2-3.3l-4.5-1.4-2.1-3.7 5.5 1.7-0.1-0.6-5.8-1.8-2.1-3.7 7.3 2.3-0.1-0.7-7.6-2.4-2-3.6 9.1 2.8-0.2-1.4 8.4-3.2 8.4 3.2-0.2 1.4 9.1-2.8-2.1 3.6zm-1.3 4.9l1.5-9.1-7.8-3-7.9 3 1.5 9.1c0.5 2.5 1.9 4.8 4 5.9l2.4 1.4 2.3-1.4c2.1-1.1 3.6-3.4 4-5.9z"/>
            </g>
        </g>
    </g>
</svg>
